<?xml version="1.0" encoding="UTF-8" standalone="no"?>
<!-- Created with Inkscape (http://www.inkscape.org/) -->

<svg
   version="1.1"
   id="svg2"
   width="2533.3333"
   height="2533.3333"
   viewBox="0 0 2533.3333 2533.3333"
   sodipodi:docname="CircuitXperts Golden ratio Final logo.ai"
   xmlns:inkscape="http://www.inkscape.org/namespaces/inkscape"
   xmlns:sodipodi="http://sodipodi.sourceforge.net/DTD/sodipodi-0.dtd"
   xmlns="http://www.w3.org/2000/svg"
   xmlns:svg="http://www.w3.org/2000/svg">
  <defs
     id="defs6">
    <linearGradient
       x1="0"
       y1="0"
       x2="1"
       y2="0"
       gradientUnits="userSpaceOnUse"
       gradientTransform="matrix(345.04575,0,0,-345.04575,269.59332,950)"
       spreadMethod="pad"
       id="linearGradient32">
      <stop
         style="stop-opacity:1;stop-color:#fbb03b"
         offset="0"
         id="stop26" />
      <stop
         style="stop-opacity:1;stop-color:#ed1e79"
         offset="0.439437"
         id="stop28" />
      <stop
         style="stop-opacity:1;stop-color:#662f8f"
         offset="1"
         id="stop30" />
    </linearGradient>
  </defs>
  <sodipodi:namedview
     id="namedview4"
     pagecolor="#ffffff"
     bordercolor="#000000"
     borderopacity="0.25"
     inkscape:showpageshadow="2"
     inkscape:pageopacity="0.0"
     inkscape:pagecheckerboard="0"
     inkscape:deskcolor="#d1d1d1" />
  <g
     id="g8"
     inkscape:groupmode="layer"
     inkscape:label="CircuitXperts Golden ratio Final logo"
     transform="matrix(1.3333333,0,0,-1.3333333,0,2533.3333)">
    <text
       xml:space="preserve"
       transform="matrix(1,0,0,-1,647.9116,892.0293)"
       style="font-variant:normal;font-weight:normal;font-stretch:normal;font-size:175px;font-family:TypoGraphica;-inkscape-font-specification:TypoGraphica;writing-mode:lr-tb;fill:#262261;fill-opacity:1;fill-rule:nonzero;stroke:none"
       id="text12"><tspan
         x="0 106.925 139.64999 188.825 275.625 357 389.72501 460.95001 581.875 686.34998 786.625 835.79999 907.02502"
         y="0"
         sodipodi:role="line"
         id="tspan10">CircuitXperts</tspan></text>
    <g
       id="g14">
      <g
         id="g16">
        <g
           id="g22">
          <g
             id="g24">
            <path
               d="m 574.922,1291.87 c -4.002,-4.435 -3.694,-11.604 1.194,-15.171 v 0 c 2.806,-2.044 3.422,-4.308 3.422,-7.44 v 0 c -0.055,-48.171 -0.073,-96.342 0.036,-144.514 v 0 c 0,-3.783 -1.176,-6.536 -3.838,-9.124 v 0 c -7.784,-7.585 -15.424,-15.333 -23.117,-23.026 v 0 c -1.467,-1.467 -3.259,-2.843 -3.186,-5.123 v 0 c 0.126,-4.038 -2.046,-4.852 -5.54,-4.816 v 0 c -0.398,0 -0.814,0.018 -1.212,0.018 v 0 c -1.268,0.019 -2.535,0.019 -3.784,0.019 v 0 c -7.458,0.054 -14.898,0.018 -22.32,0 v 0 h -4.671 c -0.67,2.425 1.086,3.149 2.063,4.145 v 0 c 1.159,1.194 2.336,2.372 3.494,3.566 v 0 c 5.486,5.576 10.988,11.152 16.655,16.565 v 0 c 2.009,1.918 3.205,3.927 3.71,6.317 v 0 c 0.236,1.014 0.345,2.082 0.327,3.258 v 0 c -0.018,2.607 -0.036,5.232 -0.054,7.839 v 0 c -0.073,14.645 0.018,29.308 -0.073,43.954 v 0 c -0.018,3.349 0.851,5.63 3.675,7.856 v 0 c 7.621,5.974 8.092,16.708 1.52,23.262 v 0 c -6.534,6.535 -16.871,5.901 -22.863,-1.375 v 0 c -5.612,-6.789 -3.856,-17.361 4.019,-22.611 v 0 c 2.48,-1.648 3.439,-3.512 3.421,-6.354 v 0 c -0.054,-16.745 -0.054,-33.509 -0.018,-50.253 v 0 c 0,-2.535 -0.706,-4.707 -2.553,-6.536 v 0 c -7.675,-7.693 -15.314,-15.423 -22.954,-23.134 v 0 c -1.81,-1.829 -3.421,-1.865 -5.286,0.018 v 0 c -8.019,8.11 -16.202,16.039 -24.113,24.239 v 0 c -3.512,3.638 -2.914,16.039 0.707,19.804 v 0 c 4.561,4.725 9.051,9.522 13.957,13.867 v 0 c 3.294,2.95 4.289,6.173 4.271,10.464 v 0 c -0.181,21.578 -0.054,43.156 -0.145,64.735 v 0 c -0.017,3.494 0.616,6.082 3.676,8.436 v 0 c 4.543,3.457 4.815,10.844 1.23,14.862 v 0 c -3.909,4.435 -10.843,4.58 -15.278,0.345 v 0 c -4.254,-4.038 -4.598,-10.772 0.018,-14.7 v 0 c 3.386,-2.879 4.001,-6.011 3.982,-9.993 v 0 c -0.09,-20.71 -0.108,-41.437 0,-62.147 v 0 c 0.019,-3.711 -0.832,-6.625 -3.746,-9.142 v 0 c -3.132,-2.697 -5.812,-5.901 -8.817,-8.761 v 0 c -5.051,-4.78 -10.535,-9.287 -7.929,-18.357 v 0 c -4,1.521 -5.448,5.34 -9.033,5.286 v 0 c -3.113,-0.036 -6.209,0.091 -9.323,0.163 v 0 c -2.354,0.037 -3.403,1.322 -3.403,3.603 v 0 c 0,12.962 0.018,25.904 -0.036,38.848 v 0 c 0,2.444 1.611,3.585 3.186,4.979 v 0 c 4.942,4.326 5.431,11.35 1.212,15.55 v 0 c -4.163,4.164 -10.626,4.164 -14.898,-0.018 v 0 c -4.544,-4.454 -4.381,-10.952 0.832,-15.46 v 0 c 2.354,-2.028 3.313,-4.109 3.277,-7.096 v 0 c -0.09,-11.568 -0.144,-23.136 0.036,-34.704 v 0 c 0.055,-4.145 -1.285,-5.919 -5.647,-5.847 v 0 c -11.731,0.182 -23.48,0.109 -35.228,0.036 v 0 c -2.788,-0.018 -4.779,0.888 -6.644,3.114 v 0 c -4.453,5.305 -10.753,5.649 -15.387,1.213 v 0 c -4.544,-4.345 -4.598,-10.844 -0.145,-15.242 v 0 c 4.236,-4.146 11.242,-3.621 15.514,1.448 v 0 c 1.701,2.028 3.403,3.113 6.082,3.095 v 0 c 12.093,-0.072 24.185,-0.072 36.26,0.037 v 0 c 3.349,0.018 5.032,-0.941 5.177,-4.653 v 0 c 0.381,-9.613 0.526,-9.613 5.087,-16.799 v 0 c -12.961,2.589 -17.342,-8.363 -24.293,-14.808 v 0 c -4.509,-4.181 -8.744,-6.282 -14.971,-6.173 v 0 c -19.86,0.362 -39.718,0.181 -59.577,0.109 v 0 c -3.621,-0.018 -6.426,0.705 -9.033,3.71 v 0 c -4.182,4.815 -10.988,4.635 -15.134,0.253 v 0 c -4.091,-4.362 -3.982,-10.77 0.271,-14.861 v 0 c 4.273,-4.11 11.188,-4.001 15.099,0.941 v 0 c 2.425,3.041 5.104,3.512 8.526,3.512 v 0 c 9.218,-0.032 18.437,-0.026 27.655,-0.022 v 0 c 12.541,0.01 25.083,0.014 37.623,-0.069 v 0 c 4.128,-0.036 7.206,1.086 9.921,4.291 v 0 c 3.24,3.783 7.204,6.97 10.427,10.788 v 0 c 3.91,4.654 8.562,6.228 14.572,6.048 v 0 c 4.653,-0.145 8.147,-1.322 11.369,-4.762 v 0 c 6.608,-7.042 13.504,-13.83 20.474,-20.528 v 0 c 2.517,-2.426 2.915,-4.182 0.271,-6.753 v 0 c -7.403,-7.223 -14.68,-14.591 -21.976,-21.94 v 0 c -2.19,-2.245 -4.725,-3.168 -7.874,-3.15 v 0 c -16.239,0.091 -32.459,0.091 -48.697,0 v 0 c -3.186,-0.018 -5.413,0.796 -7.259,3.747 v 0 c -3.766,6.01 -10.5,8.273 -17.125,6.372 v 0 c -6.228,-1.774 -11.007,-7.82 -11.17,-14.084 v 0 c -0.181,-6.644 3.892,-12.835 9.866,-15.043 v 0 c 6.589,-2.426 13.432,-0.796 17.668,4.852 v 0 c 2.263,3.023 4.815,3.928 8.364,3.91 v 0 c 8.175,-0.051 16.345,-0.05 24.513,-0.05 v 0 c 6.372,10e-4 12.744,10e-4 19.115,-0.023 v 0 c 2.715,0.019 5.448,0 8.164,-0.018 v 0 c 1.05,0 2.027,0.073 2.933,0.272 v 0 c 2.353,0.452 4.326,1.575 6.209,3.548 v 0 c 5.466,5.738 11.042,11.387 16.545,16.926 v 0 c 2.029,2.046 4.038,4.074 6.03,6.082 v 0 c 2.334,-0.814 1.827,-2.226 1.845,-3.295 v 0 -1.972 c 0.018,-7.459 -0.018,-14.899 0.018,-22.339 v 0 c -0.018,-1.268 0,-2.553 0.019,-3.82 v 0 -1.394 c 0.036,-3.259 -0.67,-5.413 -4.509,-5.232 v 0 c -2.533,0.127 -3.982,-1.828 -5.556,-3.385 v 0 c -7.712,-7.675 -15.479,-15.315 -23.046,-23.117 v 0 c -2.479,-2.534 -5.087,-3.657 -8.652,-3.657 v 0 c -48.353,0.091 -96.706,0.073 -145.04,0.036 v 0 c -2.969,0 -5.05,0.688 -7.023,3.241 v 0 c -3.965,5.177 -11.061,5.539 -15.479,1.267 v 0 c -4.326,-4.145 -4.272,-11.079 0.109,-15.297 v 0 c 4.272,-4.109 11.314,-3.946 15.134,1.032 v 0 c 2.28,2.987 4.816,3.349 8.02,3.331 v 0 c 15.062,-0.006 30.125,-0.002 45.188,0 v 0 c 33.288,0.007 66.574,0.015 99.851,-0.073 v 0 c 4.724,-0.018 8.146,1.359 11.368,4.743 v 0 c 4.453,4.671 9.033,9.251 13.631,13.795 v 0 c 3.006,2.987 6.03,5.956 9.052,8.925 v 0 c 0.29,0.289 0.598,0.615 0.905,0.923 v 0 c 1.195,1.14 2.553,2.136 4.453,1.34 v 0 c 2.028,-0.833 0.978,-3.114 1.683,-4.508 v 0 c 0.145,-0.308 0.291,-0.615 0.417,-0.905 v 0 c 1.321,-2.969 1.793,-5.847 1.739,-8.654 v 0 c -0.109,-8.182 -4.635,-15.857 -6.083,-23.769 v 0 c -0.073,-0.289 -0.127,-0.56 -0.163,-0.85 v 0 c -0.163,-1.032 -0.508,-2.01 -0.996,-2.933 v 0 c -2.426,-4.543 -8.272,-7.893 -12.201,-11.858 v 0 c -1.865,-1.882 -4.163,-1.936 -6.463,-1.809 v 0 c -0.977,0.036 -1.973,0.126 -2.933,0.126 v 0 h -7.385 c -31.029,-0.054 -62.075,0 -93.103,-0.072 v 0 c -3.475,0 -6.101,0.633 -8.508,3.584 v 0 c -3.874,4.761 -10.391,4.834 -14.681,0.815 v 0 c -4.164,-3.892 -4.381,-10.807 -0.471,-14.953 v 0 c 4.092,-4.345 11.169,-4.562 15.134,0.271 v 0 c 2.589,3.115 5.34,3.694 8.961,3.694 v 0 c 30.865,-0.072 61.748,-0.108 92.614,0.018 v 0 c 2.968,0 5.937,0 8.906,0.018 v 0 c 0.507,0 0.978,-0.018 1.448,-0.055 v 0 c 3.548,-0.253 6.282,-1.592 9.125,-4.11 v 0 c 3.347,-2.932 6.263,-6.028 8.562,-9.467 v 0 c 0.796,-1.213 1.539,-2.462 2.154,-3.783 v 0 c 1.701,-3.494 2.751,-7.35 2.95,-11.713 v 0 c 0.091,-2.009 0.616,-4.254 1.666,-5.937 v 0 c 1.358,-2.173 1.811,-4.291 1.756,-6.372 v 0 c -0.073,-2.788 -1.032,-5.522 -1.901,-8.237 v 0 c -0.435,-1.34 -0.833,-2.697 -1.103,-4.056 v 0 c -0.635,-3.33 -3.55,-1.9 -5.251,-0.307 v 0 c -0.036,0.036 -0.09,0.072 -0.126,0.127 v 0 c -3.44,3.204 -6.808,6.498 -10.157,9.793 v 0 c -1.031,1.032 -2.045,2.045 -3.077,3.06 v 0 c -3.692,3.639 -7.513,7.168 -10.916,11.061 v 0 c -3.023,3.439 -6.499,4.453 -10.952,4.453 v 0 c -30.118,-0.068 -60.23,-0.065 -90.339,-0.062 v 0 c -18.065,10e-4 -36.129,0.003 -54.193,-0.01 v 0 c -3.566,0 -6.372,0.343 -8.925,3.674 v 0 c -3.747,4.852 -11.043,4.598 -15.134,0.272 v 0 c -4.037,-4.29 -3.91,-10.935 0.271,-14.934 v 0 c 4.237,-4.074 11.55,-3.966 15.171,0.886 v 0 c 2.334,3.132 4.888,3.694 8.363,3.694 v 0 c 47.484,-0.074 94.968,-0.091 142.451,0.053 v 0 c 4.471,0.019 7.821,-1.122 10.934,-4.453 v 0 c 6.373,-6.807 13.107,-13.27 19.75,-19.822 v 0 c 2.878,-2.843 5.286,-6.463 10.192,-6.192 v 0 c 1.665,0.091 2.299,-1.412 2.299,-2.915 v 0 -7.24 c 0.018,-7.277 0.018,-14.645 0.018,-22.303 v 0 -5.865 c -3.096,2.1 -5.72,4.272 -7.966,6.553 v 0 c -1.592,1.575 -3.005,3.222 -4.253,4.942 v 0 c -5.539,7.513 -11.93,12.273 -19.425,14.627 v 0 c -3.24,1.031 -6.679,1.612 -10.336,1.756 v 0 c -2.752,0.126 -5.649,0.019 -8.654,-0.326 v 0 c -7.865,-0.896 -15.85,-0.683 -23.838,-0.471 v 0 c -3.964,0.106 -7.928,0.212 -11.878,0.182 v 0 c -3.005,-0.019 -5.069,0.85 -6.934,3.439 v 0 c -4.272,5.901 -11.441,7.874 -17.975,5.503 v 0 c -5.776,-2.099 -10.066,-8.598 -9.939,-15.061 v 0 c 0.127,-6.372 4.725,-12.273 11.043,-14.174 v 0 c 6.771,-2.046 13.395,0.271 17.487,6.625 v 0 c 1.63,2.534 3.531,3.385 6.372,3.385 v 0 c 16.582,-0.055 33.146,-0.055 49.729,0.018 v 0 c 2.987,0.018 5.34,-0.959 7.404,-3.024 v 0 c 7.422,-7.457 14.808,-14.951 22.357,-22.303 v 0 c 2.262,-2.188 2.244,-3.673 -0.036,-5.882 v 0 c -7.785,-7.585 -15.352,-15.424 -23.1,-23.045 v 0 c -4.272,-4.2 -16.455,-3.874 -21.017,0.525 v 0 c -4.834,4.67 -9.649,9.395 -14.228,14.337 v 0 c -2.318,2.499 -4.834,3.422 -8.183,3.404 v 0 c -10.971,-0.046 -21.937,-0.041 -32.901,-0.037 v 0 c -10.963,0.005 -21.924,0.009 -32.885,-0.036 v 0 c -3.639,-0.018 -6.427,0.598 -8.979,3.712 v 0 c -3.964,4.779 -11.042,4.743 -15.207,0.579 v 0 c -4.145,-4.127 -4.054,-10.663 0.2,-14.88 v 0 c 4.327,-4.273 11.024,-4.308 15.152,0.596 v 0 c 2.461,2.933 5.123,3.566 8.562,3.549 v 0 c 21.072,-0.055 42.144,-0.091 63.198,0.036 v 0 c 3.728,0.018 6.625,-0.96 9.123,-3.82 v 0 c 2.606,-2.987 5.685,-5.557 8.364,-8.472 v 0 c 4.832,-5.286 9.504,-10.752 18.791,-8.996 v 0 c -6.916,-4.599 -5.395,-11.116 -5.504,-17.162 v 0 c -0.054,-2.933 -1.629,-3.856 -4.308,-3.856 v 0 c -12.599,0.054 -25.218,0.054 -37.817,0.018 v 0 c -2.336,-0.018 -3.693,1.194 -5.123,2.878 v 0 c -4.399,5.142 -11.17,5.829 -15.514,1.828 v 0 c -4.562,-4.217 -4.652,-10.825 -0.254,-15.242 v 0 c 4.635,-4.652 10.989,-4.29 15.804,1.268 v 0 c 1.793,2.063 3.675,2.86 6.246,2.86 v 0 c 11.911,-0.055 23.841,-0.091 35.752,0.036 v 0 c 3.693,0.036 5.304,-1.322 5.268,-5.142 v 0 c -0.127,-12.092 -0.09,-24.167 -0.036,-36.259 v 0 c 0.018,-2.679 -1.122,-4.398 -3.114,-6.118 v 0 c -5.213,-4.472 -5.539,-10.88 -1.103,-15.46 v 0 c 4.362,-4.509 11.042,-4.454 15.187,0.09 v 0 c 4.128,4.544 3.621,11.224 -1.629,15.478 v 0 c -2.353,1.882 -2.969,3.946 -2.951,6.68 v 0 c 0.055,11.567 0.163,23.135 -0.072,34.703 v 0 c -0.091,4.453 1.321,6.391 5.919,6.01 v 0 c 5.432,-0.435 10.826,-0.417 14.102,5.033 v 0 c 0.671,-0.49 1.16,-0.725 1.16,-0.87 v 0 c -1.231,-8.182 3.601,-13.468 9.323,-17.686 v 0 c 10.029,-7.422 12.834,-16.926 12.109,-29.127 v 0 c -1.013,-17.035 -0.307,-34.16 -0.217,-51.268 v 0 c 0.019,-3.621 -0.578,-6.426 -3.764,-8.978 v 0 c -4.599,-3.676 -4.453,-10.5 -0.399,-14.773 v 0 c 3.892,-4.09 10.3,-4.308 14.446,-0.47 v 0 c 4.254,3.929 4.906,11.079 0.362,14.735 v 0 c -4.055,3.259 -4.273,6.97 -4.254,11.369 v 0 c 0.072,21.235 -0.019,42.469 0.09,63.722 v 0 c 0.018,3.548 -0.869,6.192 -3.547,8.653 v 0 c -5.07,4.67 -9.884,9.631 -14.681,14.609 v 0 c -4.002,4.145 -3.984,16.528 0.036,20.601 v 0 c 7.512,7.603 15.205,15.044 22.645,22.737 v 0 c 2.354,2.408 3.929,2.48 6.319,0.055 v 0 c 7.386,-7.495 14.989,-14.791 22.519,-22.121 v 0 c 1.973,-1.938 2.734,-4.274 2.716,-7.008 v 0 c -0.036,-16.743 -0.036,-33.489 0.018,-50.234 v 0 c 0.018,-2.915 -1.05,-4.724 -3.53,-6.336 v 0 c -6.046,-3.946 -8.508,-11.115 -6.462,-17.614 v 0 c 1.901,-6.028 7.747,-10.59 13.83,-10.807 v 0 c 6.825,-0.235 12.979,3.909 15.26,10.317 v 0 c 2.317,6.463 0.47,13.306 -5.358,17.489 v 0 c -2.77,1.99 -3.512,4.235 -3.494,7.403 v 0 c 0.055,14.754 -0.073,29.526 0.073,44.316 v 0 c 0,2.136 0.018,4.291 0.054,6.426 v 0 c 0.018,1.611 -0.109,3.097 -0.416,4.472 v 0 c -0.616,2.77 -2.01,5.14 -4.435,7.367 v 0 c -5.486,5.051 -10.699,10.428 -15.913,15.786 v 0 c -0.941,0.959 -1.865,1.901 -2.806,2.861 v 0 c -1.158,1.158 -2.787,2.063 -3.023,4.037 v 0 c 1.503,1.339 3.313,0.723 4.942,0.723 v 0 h 0.073 c 4.473,0.054 8.934,0.05 13.398,0.046 v 0 c 2.959,-0.003 5.919,-0.005 8.886,0.009 v 0 h 1.467 c 0.795,0 1.575,0.036 2.353,0.054 v 0 c 3.819,0.073 7.259,-0.308 7.205,-6.427 v 0 c 0,-1.303 1.936,-2.733 3.15,-3.946 v 0 c 7.657,-7.711 15.296,-15.46 23.08,-23.063 v 0 c 2.39,-2.334 3.44,-4.833 3.44,-8.218 v 0 c -0.091,-48.353 -0.091,-96.687 -0.036,-145.039 v 0 c 0,-3.187 -0.851,-5.323 -3.494,-7.441 v 0 c -4.924,-3.892 -5.142,-11.024 -1.014,-15.134 v 0 c 4.29,-4.217 10.771,-4.29 14.898,-0.163 v 0 c 4.382,4.381 4.4,11.097 -0.669,15.043 v 0 c -3.131,2.444 -3.403,5.196 -3.403,8.581 v 0 c 0.036,47.99 -0.055,95.999 0.108,143.99 v 0 c 0.019,5.285 -1.521,9.106 -5.376,12.672 v 0 c -4.58,4.272 -9.016,8.707 -13.414,13.16 v 0 c -2.879,2.914 -5.758,5.83 -8.636,8.726 v 0 c -0.308,0.326 -0.651,0.651 -0.941,0.978 v 0 c -1.141,1.194 -2.082,2.516 -1.466,4.362 v 0 c 0.778,2.372 3.005,1.647 4.761,1.883 v 0 c 0.037,0 0.091,0.018 0.127,0.018 v 0 c 0.506,0.072 1.212,-0.055 1.502,0.236 v 0 c 2.48,2.48 5.014,2.805 7.531,2.371 v 0 c 2.425,-0.435 4.833,-1.557 7.259,-2.1 v 0 c 4.707,-1.086 9.395,-2.354 14.138,-3.186 v 0 c 0.96,-0.163 1.829,-0.435 2.644,-0.779 v 0 c 1.339,-0.542 2.533,-1.303 3.71,-2.135 v 0 c 0.689,-0.507 1.395,-1.033 2.1,-1.557 v 0 c 6.372,-4.725 9.631,-10.337 11.025,-17.036 v 0 c 0.652,-3.077 0.887,-6.389 0.851,-9.955 v 0 c 0,-0.399 0,-0.797 -0.018,-1.214 v 0 c -0.833,-30.358 -0.29,-60.77 -0.235,-91.165 v 0 c 0,-3.548 -0.362,-6.408 -3.566,-9.016 v 0 c -4.798,-3.928 -4.599,-11.205 -0.382,-15.206 v 0 c 1.919,-1.792 4.49,-2.697 7.061,-2.715 v 0 185.336 41.782 c -31.933,0.144 -58.888,26.61 -58.798,58.707 v 0 c 0.091,32.458 25.761,58.49 57.82,59.232 v 0 c 0.326,0.018 0.652,0.018 0.978,0.018 v 0 41.745 185.372 c -2.751,-0.036 -5.504,-1.067 -7.423,-3.096 v 0 c -4.235,-4.471 -3.801,-11.35 1.395,-15.532 v 0 c 2.153,-1.737 2.897,-3.548 2.897,-6.154 v 0 c -0.037,-31.553 -0.055,-63.107 0,-94.678 v 0 -10.988 c 0,-2.788 -0.816,-4.996 -2.807,-6.915 v 0 c -3.493,-3.35 -6.861,-6.825 -10.3,-10.229 v 0 c -0.2,-0.199 -0.398,-0.398 -0.598,-0.579 v 0 c -0.923,-0.869 -1.936,-1.629 -3.259,-1.882 v 0 c -0.144,-0.036 -0.306,-0.055 -0.451,-0.091 v 0 c -8.056,-1.557 -15.985,-3.621 -23.914,-5.757 v 0 c -0.091,-0.018 -0.199,-0.054 -0.29,-0.073 v 0 c -2.462,-0.669 -4.888,0.163 -7.295,1.25 v 0 c -1.883,0.851 -3.766,1.864 -5.649,2.426 v 0 c -2.335,0.706 -0.887,3.276 0.652,5.05 v 0 c 0.236,0.29 0.489,0.562 0.724,0.797 v 0 c 2.969,3.005 5.938,6.028 8.907,9.033 v 0 c 4.562,4.599 9.16,9.16 13.885,13.577 v 0 c 3.476,3.24 4.851,6.608 4.833,11.296 v 0 c -0.126,48.009 -0.054,95.999 -0.109,144.008 v 0 c 0,3.91 0.363,7.042 3.983,9.848 v 0 c 4.563,3.548 4.146,10.77 0.036,14.772 v 0 c -2.006,1.953 -4.698,2.923 -7.369,2.923 v 0 c -2.822,0 -5.621,-1.082 -7.565,-3.231 m -117.94,-191.455 c -9.341,0.307 -16.112,9.396 -13.903,18.646 v 0 c 0.362,1.539 1.05,2.552 2.661,2.624 v 0 c 5.141,0.254 10.102,0.87 14.193,-3.891 v 0 c 2.86,-3.331 5.068,-6.336 4.507,-10.916 v 0 c -0.198,-1.629 -0.271,-3.693 1.774,-4.418 v 0 c 1.666,-0.596 3.44,-0.633 4.418,1.394 v 0 c 1.121,2.299 2.153,0.797 3.077,-0.126 v 0 c 8.056,-8.02 16.201,-15.948 24.041,-24.185 v 0 c 3.348,-3.512 2.081,-8.274 1.231,-12.328 v 0 c -0.45,-2.133 -2.323,-2.014 -4.007,-1.894 v 0 c -0.688,0.049 -1.345,0.097 -1.859,-0.01 v 0 c -3.223,-0.055 -6.011,-0.181 -8.2,2.009 v 0 c -7.929,7.911 -15.894,15.786 -23.787,23.734 v 0 c -0.706,0.705 -2.445,1.773 -0.634,2.769 v 0 c 2.137,1.176 2.588,2.751 1.865,4.706 v 0 c -0.769,2.056 -2.499,1.981 -4.16,1.905 v 0 c -0.312,-0.013 -0.622,-0.027 -0.923,-0.027 v 0 c -0.099,0 -0.197,10e-4 -0.294,0 m 53.385,-34.015 c -0.996,1.049 -1.123,2.751 -1.159,4.67 v 0 c -0.036,1.901 0.181,3.458 1.196,4.381 v 0 c 0.669,0.616 1.719,0.942 3.276,0.906 v 0 h 0.489 c 3.346,-0.098 6.693,-0.081 10.04,-0.066 v 0 c 1.668,0.01 3.336,0.016 5.004,0.011 v 0 h 16.563 c 1.43,-0.018 2.842,-0.253 3.259,-1.937 v 0 c 0.362,-1.394 0.434,-2.969 -0.869,-3.802 v 0 c -2.408,-1.502 -4.634,-3.457 -7.278,-4.489 v 0 c -1.159,-0.47 -2.389,-0.742 -3.747,-0.76 v 0 h -2.281 c -6.898,0 -13.794,0.072 -20.673,-0.037 v 0 h -0.326 c -0.067,-10e-4 -0.134,0 -0.2,0 v 0 c -1.637,0 -2.65,0.428 -3.294,1.125 m -1.087,-16.112 v 1.43 c 0.019,1.883 0.49,3.621 2.734,3.675 v 0 c 0.779,0.019 1.575,0.055 2.354,0.091 v 0 c 3.548,0.163 7.187,0.38 11.115,-0.543 v 0 c -0.543,-0.525 -1.086,-1.032 -1.611,-1.558 v 0 c -1.068,-1.013 -2.119,-2.026 -3.15,-3.022 v 0 c -2.118,-2.046 -4.218,-4.055 -6.354,-6.119 v 0 c -0.978,-0.923 -1.956,-1.865 -2.951,-2.824 v 0 c -0.706,-0.688 -1.412,-1.376 -2.137,-2.064 v 0 c 0,3.929 -0.018,7.459 0,10.934 m -18.899,-34.467 c -1.955,0.543 -1.847,2.299 -1.864,3.82 v 0 c 0,0.796 -0.019,1.593 -0.019,2.407 v 0 c 0,1.249 -0.017,2.499 -0.017,3.766 v 0 c 0,3.113 0.017,6.227 0.036,9.358 v 0 c 0,5.16 0.09,10.283 -0.019,15.442 v 0 c 0,0.2 -0.017,0.417 -0.017,0.616 v 0 c -0.037,1.521 0.271,2.498 0.815,3.132 v 0 c 1.067,1.249 3.04,1.176 5.086,1.231 v 0 c 1.919,0.036 3.421,-0.2 4.291,-1.213 v 0 c 0.615,-0.688 0.922,-1.756 0.886,-3.331 v 0 c 0,-0.145 0,-0.308 -0.018,-0.453 v 0 c -0.162,-6.753 -0.307,-13.522 0.091,-20.257 v 0 c 0.018,-0.163 0.018,-0.326 0.018,-0.489 v 0 c 0.054,-2.371 -0.488,-4.453 -1.358,-6.408 v 0 c -0.905,-2.046 -2.154,-3.946 -3.403,-5.901 v 0 c -0.808,-1.24 -1.937,-1.9 -3.264,-1.9 v 0 c -0.398,0 -0.814,0.059 -1.244,0.18 m 90.478,12.527 c -1.575,0.471 -0.163,2.426 0.815,3.422 v 0 c 4.417,4.452 8.761,8.96 13.341,13.233 v 0 c 1.376,1.285 2.191,2.606 2.553,4.181 v 0 c 4.96,0.869 10.046,1.394 15.243,1.521 v 0 c -0.018,-3.187 0,-6.391 0,-9.577 v 0 c 0,-1.629 -0.471,-2.914 -1.647,-4.036 v 0 c -2.047,-1.974 -4.02,-4.001 -6.029,-5.993 v 0 c -0.652,-0.651 -1.303,-1.267 -2.263,-1.448 v 0 c -4.852,-0.923 -9.631,-2.172 -14.428,-3.458 v 0 c -0.36,-0.099 -0.719,-0.142 -1.077,-0.142 v 0 c -2.19,0 -4.329,1.643 -6.508,2.297 m -25.145,1.774 c 1.249,1.267 2.499,2.552 3.766,3.82 v 0 c 10.047,6.679 21.343,11.585 33.472,14.301 v 0 c -0.308,-0.434 -0.67,-0.851 -1.086,-1.268 v 0 c -4.562,-4.435 -9.033,-8.978 -13.523,-13.486 v 0 c -0.869,-0.851 -1.919,-1.665 -1.883,-2.987 v 0 c 0.091,-2.371 -1.194,-2.841 -3.24,-2.824 v 0 c -6.246,0.072 -12.509,0.018 -18.718,0.018 v 0 c -0.398,1.413 0.633,1.846 1.212,2.426 m -15.17,-12.436 c 2.1,2.316 4.309,4.543 6.626,6.643 v 0 c 0.669,-1.792 0.145,-3.856 -0.235,-5.702 v 0 c -0.271,-1.243 -1.353,-1.172 -2.337,-1.101 v 0 c -0.407,0.03 -0.796,0.059 -1.103,0 v 0 c -0.355,-0.01 -0.701,-0.014 -1.039,-0.014 v 0 c -0.678,0 -1.319,0.032 -1.912,0.178 m 12.383,3.204 c -0.037,1.864 0.326,3.168 2.606,3.095 v 0 c 1.955,-0.059 3.902,-0.049 5.852,-0.04 v 0 c 1.084,0 2.167,0.01 3.254,0 v 0 c 3.222,0 6.463,0.018 9.685,0 v 0 c 0.833,0 1.665,-0.145 1.919,-1.122 v 0 c 0.199,-0.815 0.254,-1.738 -0.507,-2.227 v 0 c -2.027,-1.285 -3.837,-3.078 -6.463,-3.078 v 0 c -1.745,-0.01 -3.49,0 -5.235,0 v 0 c -2.799,0.011 -5.597,0.021 -8.396,-0.023 v 0 c -0.043,-0 -0.085,-0 -0.126,-0 v 0 c -2.379,0 -2.554,1.518 -2.589,3.387 m 0.036,-11.333 c 0.018,1.104 0.29,2.119 1.593,2.155 v 0 c 2.534,0.072 5.086,0.397 7.893,-0.272 v 0 c -3.223,-3.096 -6.191,-5.937 -9.486,-9.124 v 0 c 0,2.625 -0.018,4.942 0,7.241 M 541.902,988.54 c -1.159,0.326 -1.086,1.357 -1.105,2.245 v 0 c -0.018,3.023 0,6.064 0,9.087 v 0 c 0,3.132 0.055,6.264 -0.018,9.395 v 0 c -0.072,2.626 1.647,2.517 3.458,2.572 v 0 c 1.901,0.036 3.078,-0.399 3.042,-2.662 v 0 c -0.109,-4.055 -0.2,-8.11 0.036,-12.129 v 0 c 0.162,-3.005 -1.304,-5.214 -2.77,-7.494 v 0 c -0.475,-0.726 -1.143,-1.119 -1.923,-1.119 v 0 c -0.231,0 -0.472,0.035 -0.72,0.105 m -10.554,17.433 c 1.556,1.557 3.095,3.095 4.598,4.634 v 0 c 1.377,-0.488 1.068,-1.303 1.086,-1.937 v 0 c 0.019,-5.757 -0.036,-11.531 0.019,-17.289 v 0 c 0.018,-1.899 -0.399,-3.167 -2.644,-3.059 v 0 c -1.485,0.073 -2.317,-1.068 -3.24,-1.99 v 0 c -4.526,-4.491 -9.07,-8.962 -13.504,-13.524 v 0 c -0.308,-0.307 -0.616,-0.579 -0.923,-0.814 v 0 c 2.787,12.365 7.82,23.842 14.608,33.979 M 515.78,967.215 c 1.466,0.38 2.715,1.177 3.929,2.444 v 0 c 4.326,4.543 8.815,8.906 13.268,13.306 v 0 c 0.851,0.814 1.738,1.9 3.15,1.321 v 0 c 1.178,-0.489 0.562,-1.829 0.978,-2.643 v 0 c 3.565,-7.169 -1.358,-13.433 -2.39,-20.004 v 0 c -0.561,-3.603 -4.96,-5.883 -7.729,-8.671 v 0 c -1.211,-1.212 -2.741,-1.119 -4.237,-1.027 v 0 c -0.428,0.027 -0.853,0.053 -1.267,0.049 v 0 h -7.241 c 0.127,5.196 0.652,10.265 1.539,15.225 m 17.922,-50.742 c -2.662,2.48 -5.232,5.05 -7.82,7.603 v 0 c -2.155,2.136 -4.4,4.199 -6.391,6.481 v 0 c -1.159,1.321 -2.426,2.027 -3.892,2.353 v 0 c -0.851,4.942 -1.322,10.029 -1.376,15.189 v 0 c 2.697,0 5.413,0 8.128,0.017 v 0 c 2.498,0 4.29,-0.778 6.173,-2.443 v 0 c 4.507,-3.946 7.73,-8.4 8.001,-14.61 v 0 c 0.055,-1.177 0.362,-2.498 0.978,-3.475 v 0 c 2.408,-3.856 -0.019,-7.369 -0.724,-10.934 v 0 c -0.169,-0.87 -0.599,-1.184 -1.113,-1.184 v 0 c -0.641,0 -1.411,0.49 -1.964,1.003 m -2.227,-22.611 c -7.005,10.264 -12.165,21.832 -14.935,34.251 v 0 c 0.543,-0.344 1.068,-0.778 1.575,-1.322 v 0 c 3.729,-3.982 7.676,-7.766 11.567,-11.604 v 0 c 1.684,-1.664 3.096,-3.783 5.957,-3.638 v 0 c 0.977,0.055 1.357,-0.815 1.357,-1.701 v 0 -20.729 c -2.227,1.503 -4.037,3.078 -5.521,4.743 m 9.286,-2.841 c 0.109,2.914 0.018,5.829 0.018,8.742 v 0 c 0,3.223 0,6.446 0.018,9.667 v 0 c 0,0.924 0.073,1.884 1.25,2.119 v 0 c 0.832,0.163 1.701,0.163 2.19,-0.616 v 0 c 1.285,-2.01 3.005,-3.819 3.005,-6.463 v 0 c -0.018,-4.525 -0.072,-9.051 0.037,-13.576 v 0 c 0.072,-2.535 -1.412,-2.662 -3.314,-2.68 v 0 c -0.07,-0.002 -0.139,-0.002 -0.208,-0.002 v 0 c -1.89,0 -3.083,0.503 -2.996,2.809 m 12.22,-0.762 v 6.445 c 2.751,-2.769 5.684,-5.702 8.435,-8.453 v 0 c -1.647,0 -3.837,0 -6.046,-0.019 v 0 c -1.375,0 -2.371,0.416 -2.389,2.027 m -63.577,-44.568 c -0.688,0.724 -1.032,1.846 -0.96,3.548 v 0 0.217 c 0.181,4.906 0.037,9.83 0.037,14.737 v 0 9.991 c 0,1.269 0,2.554 0.017,3.821 v 0 c -0.017,0.904 0,1.792 0,2.697 v 0 c 0.019,1.557 0.127,3.204 2.137,3.602 v 0 c 1.412,0.271 2.896,0.271 3.747,-1.05 v 0 c 1.521,-2.371 3.385,-4.561 4.399,-7.187 v 0 c 0.453,-1.176 0.724,-2.444 0.724,-3.837 v 0 c 0,-0.707 0,-1.412 -0.018,-2.119 v 0 c -0.018,-6.879 -0.091,-13.776 0.09,-20.655 v 0 -0.435 c 0.036,-1.629 -0.289,-2.678 -0.904,-3.349 v 0 c -0.996,-1.104 -2.734,-1.195 -4.743,-1.231 v 0 c -0.12,-0.002 -0.238,-0.003 -0.355,-0.003 v 0 c -1.857,0 -3.302,0.282 -4.171,1.253 m 77.498,36.893 c 3.005,0.199 5.467,-0.814 7.875,-2.407 v 0 c 1.031,-0.652 1.738,-1.377 1.52,-2.662 v 0 c -0.253,-1.539 -1.484,-1.448 -2.57,-1.448 v 0 c -3.024,-0.036 -6.047,-0.017 -9.07,-0.017 v 0 0.017 c -3.023,0 -6.028,0.072 -9.051,-0.017 v 0 c -2.516,-0.091 -2.661,1.429 -2.679,3.33 v 0 c -0.055,2.027 0.379,3.259 2.805,3.186 v 0 c 1.998,-0.068 4.006,-0.121 6.013,-0.121 v 0 c 1.722,0 3.444,0.039 5.157,0.139 m -26.195,-0.344 c 1.484,0.399 3.077,0.308 4.707,0.235 v 0 c 0.76,-0.036 1.574,-0.344 1.61,-1.104 v 0 c 0.091,-1.828 0.635,-3.765 0.109,-5.521 v 0 c -2.244,2.028 -4.38,4.164 -6.426,6.39 m 56.807,-31.426 c -0.435,1.684 -1.322,3.114 -2.806,4.489 v 0 c -4.435,4.128 -8.617,8.527 -12.908,12.817 v 0 c -0.85,0.851 -1.864,1.738 -1.412,3.114 v 0 c 0.471,1.43 1.829,0.942 2.861,1.123 v 0 c 0.307,0.036 0.705,-0.037 0.887,0.126 v 0 c 2.842,2.861 5.756,0.832 8.653,0.163 v 0 c 2.752,-0.633 5.503,-1.376 8.273,-1.865 v 0 c 2.009,-0.343 3.385,-1.448 4.96,-2.606 v 0 c 5.648,-4.2 7.133,-9.577 6.933,-16.528 v 0 l -0.053,-2.39 c -5.215,0.127 -10.357,0.653 -15.388,1.557 m -38.451,15.658 c -0.995,1.015 -1.991,2.029 -2.986,3.042 v 0 c -0.67,0.67 -1.629,1.213 -1.775,2.353 v 0 c 0.887,0.797 1.938,0.435 2.897,0.435 v 0 c 2.544,0.029 5.09,0.027 7.635,0.024 v 0 c 2.107,-0.003 4.214,-0.005 6.322,0.012 v 0 c 2.697,0.019 5.63,0.58 5.594,-3.728 v 0 c 0,-0.779 1.122,-1.612 1.846,-2.318 v 0 c 4.472,-4.508 8.943,-9.052 13.505,-13.505 v 0 c 0.344,-0.344 0.652,-0.688 0.904,-1.05 v 0 c -12.255,2.806 -23.732,7.875 -33.942,14.735 m -49.746,-18.536 v 1.774 c -0.018,3.44 0,6.77 0,9.25 v 0 l 1.321,-1.321 c 1.123,-1.141 2.282,-2.282 3.422,-3.44 v 0 c 1.575,-1.575 3.15,-3.149 4.707,-4.724 v 0 c 1.194,-1.195 2.371,-2.372 3.53,-3.548 v 0 l 1.412,-1.412 c -2.534,0 -5.847,0 -9.251,-0.019 v 0 h -1.068 c -2.335,0 -4.055,0.706 -4.073,3.44 m 23.769,-13.089 c 0.706,0.037 1.376,0.054 2.046,0.018 v 0 c 2.191,-0.09 4.199,-0.56 6.136,-1.321 v 0 c 1.829,-0.707 3.567,-1.665 5.286,-2.805 v 0 c 1.738,-1.142 2.952,-2.355 2.589,-4.562 v 0 c -0.434,-2.626 -2.534,-2.463 -4.399,-2.481 v 0 c -0.688,0 -1.358,-0.019 -2.045,-0.019 v 0 c -1.196,0 -2.408,-0.017 -3.603,-0.017 v 0 c -3.277,0 -6.553,0.017 -9.83,0.017 v 0 0.037 c -5.032,0 -10.083,0.127 -15.116,-0.037 v 0 h -0.362 c -1.683,-0.053 -2.733,0.308 -3.403,0.961 v 0 c -1.05,1.031 -1.141,2.751 -1.177,4.725 v 0 c -0.036,1.971 0.181,3.511 1.159,4.453 v 0 c 0.724,0.687 1.864,1.049 3.639,0.995 v 0 h 0.181 c 3.383,-0.117 6.771,-0.207 10.156,-0.208 v 0 c 2.919,0 5.835,0.068 8.743,0.244 m -70.709,-33.4 c 0.452,1.322 0.724,3.078 -0.634,3.802 v 0 c -3.367,1.793 -1.231,2.969 0.199,4.417 v 0 c 6.952,6.97 14.12,13.74 20.709,21.036 v 0 c 4.001,4.435 8.726,4.199 13.74,3.946 v 0 c 1.286,-0.055 2.698,-0.578 2.753,-1.882 v 0 c 0.198,-4.363 1.918,-9.034 -1.793,-12.799 v 0 c -7.766,-7.857 -15.586,-15.66 -23.442,-23.425 v 0 c -0.707,-0.706 -1.196,-2.118 -2.916,-1.068 v 0 c -5.738,3.549 -6.427,3.114 -6.606,-3.621 v 0 c -0.218,-7.495 -6.699,-13.631 -14.718,-13.631 v 0 c -0.624,0.192 -1.42,0.129 -2.237,0.065 v 0 c -1.865,-0.147 -3.851,-0.293 -4.19,2.614 v 0 c -0.58,4.852 -1.176,9.757 3.422,13.813 v 0 c 3.547,3.149 6.86,5.575 11.82,4.959 v 0 c 0.323,-0.042 0.658,-0.071 0.991,-0.071 v 0 c 1.22,0 2.418,0.382 2.902,1.845"
               style="fill:url(#linearGradient32);stroke:none"
               id="path34" />
          </g>
        </g>
      </g>
    </g>
  </g>
</svg>
