<?xml version="1.0" encoding="utf-8"?>
<!-- Generator: Adobe Illustrator 28.1.0, SVG Export Plug-In . SVG Version: 6.00 Build 0)  -->
<svg version="1.1" id="Layer_1" xmlns="http://www.w3.org/2000/svg" xmlns:xlink="http://www.w3.org/1999/xlink" x="0px" y="0px"
	 viewBox="0 0 1920 417.64" style="enable-background:new 0 0 1920 417.64;" xml:space="preserve">
<style type="text/css">
	.st0{fill:#FC6850;}
</style>
<g>
	<g>
		<g>
			<path class="st0" d="M184.91,327.33l-0.7-0.27c-57.91-22.13-85.88-82.18-86.16-82.78l3.6-1.64c0.27,0.58,27.38,58.69,83.26,80.45
				c55.87-21.76,82.99-79.87,83.26-80.45l3.6,1.64c-0.28,0.6-28.26,60.65-86.16,82.78L184.91,327.33z"/>
		</g>
		<g>
			<rect x="182.93" y="287.9" class="st0" width="3.96" height="37.32"/>
		</g>
		<g>
			<path class="st0" d="M168.61,298.83l-3.12-2.2c-67.46-47.44-61.92-128.18-61.86-128.99l0.08-1.02l64.9-38.55v24.55h-3.96v-17.6
				l-57.13,33.93c-0.39,9.18-1.25,78.72,57.13,122.19v-14.99h3.96V298.83z"/>
		</g>
		<g>
			<circle class="st0" cx="166.63" cy="154.33" r="5.21"/>
		</g>
		<g>
			<circle class="st0" cx="166.63" cy="274.93" r="5.21"/>
		</g>
		<g>
			<circle class="st0" cx="66.9" cy="126.35" r="5.21"/>
		</g>
		<g>
			<circle class="st0" cx="185.19" cy="141.9" r="5.21"/>
		</g>
		<g>
			<g>
				<path class="st0" d="M203.28,298.83v-22.68h3.96v14.99c58.38-43.47,57.51-113,57.13-122.19l-57.13-33.93v17.6h-3.96v-24.55
					l64.9,38.55l0.08,1.02c0.06,0.81,5.6,81.55-61.86,128.99L203.28,298.83z"/>
			</g>
			<g>
				<circle class="st0" cx="205.26" cy="154.33" r="5.21"/>
			</g>
			<g>
				<circle class="st0" cx="205.26" cy="274.93" r="5.21"/>
			</g>
			<g>
				<circle class="st0" cx="184.91" cy="286.14" r="5.21"/>
			</g>
		</g>
		<g>
			<polygon class="st0" points="305.47,205.9 281.4,205.9 281.4,158.45 184.93,104.38 91.55,158.86 91.55,205.9 64.92,205.9 
				64.92,129.48 68.88,129.48 68.88,201.95 87.59,201.95 87.59,156.59 184.89,99.82 285.36,156.13 285.36,201.95 301.51,201.95 
				301.51,131.55 305.47,131.55 			"/>
		</g>
		<g>
			<rect x="182.93" y="102.1" class="st0" width="3.96" height="38.46"/>
		</g>
		<g>
			<circle class="st0" cx="133.05" cy="86.61" r="5.21"/>
		</g>
		<g>
			<circle class="st0" cx="154.68" cy="60.01" r="5.21"/>
		</g>
		<g>
			<rect x="131.07" y="88.29" class="st0" width="3.96" height="44.06"/>
		</g>
		<g>
			<polygon class="st0" points="156.66,107.77 133.05,107.77 133.05,103.81 152.7,103.81 152.7,63.2 156.66,63.2 			"/>
		</g>
		<g>
			<g>
				<circle class="st0" cx="86.09" cy="94.3" r="5.21"/>
			</g>
			<g>
				<circle class="st0" cx="108.15" cy="70.7" r="5.21"/>
			</g>
			<g>
				<rect x="106.17" y="75.21" class="st0" width="3.96" height="71.67"/>
			</g>
			<g>
				<polygon class="st0" points="108.15,128.33 84.11,128.33 84.11,97.27 88.07,97.27 88.07,124.37 108.15,124.37 				"/>
			</g>
		</g>
		<g>
			<g>
				<circle class="st0" cx="286.25" cy="92.96" r="5.21"/>
			</g>
			<g>
				<circle class="st0" cx="264.19" cy="69.37" r="5.21"/>
			</g>
			<g>
				<circle class="st0" cx="239.29" cy="85.27" r="5.21"/>
			</g>
			<g>
				<circle class="st0" cx="217.66" cy="58.67" r="5.21"/>
			</g>
			<g>
				<rect x="262.21" y="73.87" class="st0" width="3.96" height="71.67"/>
			</g>
			<g>
				<rect x="237.31" y="86.94" class="st0" width="3.96" height="44.07"/>
			</g>
			<g>
				<polygon class="st0" points="239.29,106.43 215.68,106.43 215.68,61.85 219.64,61.85 219.64,102.47 239.29,102.47 				"/>
			</g>
			<g>
				<polygon class="st0" points="288.23,126.98 264.19,126.98 264.19,123.02 284.27,123.02 284.27,95.93 288.23,95.93 				"/>
			</g>
		</g>
		<g>
			<circle class="st0" cx="303.49" cy="128.62" r="5.21"/>
		</g>
		<g>
			<g>
				<circle class="st0" cx="79.17" cy="304.84" r="5.21"/>
			</g>
			<g>
				<circle class="st0" cx="99.85" cy="327.1" r="5.21"/>
			</g>
			<g>
				<circle class="st0" cx="126.43" cy="358.97" r="5.21"/>
			</g>
			<g>
				<circle class="st0" cx="152.19" cy="343.41" r="5.21"/>
			</g>
			<g>
				<path class="st0" d="M99.85,321.06"/>
			</g>
			<g>
				<rect x="97.87" y="243.46" class="st0" width="3.96" height="81.75"/>
			</g>
			<g>
				<polygon class="st0" points="81.15,303.61 77.19,303.61 77.19,267.75 99.85,267.75 99.85,271.71 81.15,271.71 				"/>
			</g>
			<g>
				<rect x="124.45" y="282.93" class="st0" width="3.96" height="73.11"/>
			</g>
			<g>
				<polygon class="st0" points="154.17,341.2 150.21,341.2 150.21,324.97 126.43,324.97 126.43,321.02 154.17,321.02 				"/>
			</g>
		</g>
		<g>
			<g>
				<circle class="st0" cx="291.42" cy="304.84" r="5.21"/>
			</g>
			<g>
				<circle class="st0" cx="270.74" cy="327.1" r="5.21"/>
			</g>
			<g>
				<circle class="st0" cx="244.15" cy="358.97" r="5.21"/>
			</g>
			<g>
				<circle class="st0" cx="218.39" cy="343.41" r="5.21"/>
			</g>
			<g>
				<path class="st0" d="M270.74,321.06"/>
			</g>
			<g>
				<rect x="268.76" y="243.46" class="st0" width="3.96" height="81.75"/>
			</g>
			<g>
				<polygon class="st0" points="293.39,303.61 289.44,303.61 289.44,271.71 270.74,271.71 270.74,267.75 293.39,267.75 				"/>
			</g>
			<g>
				<rect x="242.17" y="282.93" class="st0" width="3.96" height="73.11"/>
			</g>
			<g>
				<polygon class="st0" points="220.37,341.2 216.41,341.2 216.41,321.02 244.15,321.02 244.15,324.97 220.37,324.97 				"/>
			</g>
		</g>
		<g>
			<g>
				<path class="st0" d="M159.73,207.27l27.07,27.23c0.66,0.74,0.49,1.64-0.49,1.64h-5.81c-1.38,0-2.13-0.32-2.86-1.07l-24.21-24.62
					h-16.27v24.04c0,1.07-0.57,1.64-1.72,1.64h-4.09c-1.14,0-1.72-0.57-1.72-1.64v-53.97c0-1.07,0.57-1.64,1.72-1.64h4.09
					c1.14,0,1.72,0.57,1.72,1.64V204H154l23.47-24.04c0.73-0.73,1.47-1.07,2.86-1.07h5.48c0.9,0,1.14,0.98,0.49,1.64L159.73,207.27z
					"/>
			</g>
			<g>
				<path class="st0" d="M213.39,185.35h-21.43c-1.14,0-1.72-0.57-1.72-1.64v-3.19c0-1.07,0.57-1.64,1.72-1.64h50.46
					c1.14,0,1.72,0.57,1.72,1.64v3.19c0,1.07-0.57,1.64-1.72,1.64h-21.43v49.15c0,1.07-0.65,1.64-1.72,1.64h-4.17
					c-1.07,0-1.72-0.57-1.72-1.64V185.35z"/>
			</g>
		</g>
	</g>
	<g>
		<path class="st0" d="M679.68,113.88l57.19,57.54c1.38,1.56,1.05,3.46-1.03,3.46h-12.27c-2.93,0-4.49-0.69-6.05-2.25l-51.15-52
			h-34.38v50.8c0,2.25-1.2,3.46-3.63,3.46h-8.63c-2.43,0-3.63-1.2-3.63-3.46V57.38c0-2.25,1.2-3.46,3.63-3.46h8.63
			c2.43,0,3.63,1.2,3.63,3.46v49.59h35.59l49.6-50.79c1.55-1.56,3.1-2.25,6.04-2.25h11.57c1.91,0,2.43,2.07,1.05,3.46L679.68,113.88
			z"/>
		<path class="st0" d="M889.62,147.23c0,18.48-9.51,27.65-28.86,27.65H798.9c-19.35,0-29.03-9.16-29.03-27.65V81.57
			c0-18.48,9.68-27.65,29.03-27.65h61.86c19.35,0,28.86,9.16,28.86,27.65V147.23z M873.54,83.65c0-12.95-3.46-16.08-19.01-16.08
			h-49.76c-15.55,0-19.01,3.12-19.01,16.08v61.51c0,12.95,3.46,16.08,19.01,16.08h49.76c15.55,0,19.01-3.12,19.01-16.08V83.65z"/>
		<path class="st0" d="M1050.99,79.85v23.5c0,17.28-8.99,25.92-27.12,25.92h-11.92l42.67,42.16c1.56,1.38,0.87,3.46-1.04,3.46
			h-12.44c-2.93,0-4.31-0.69-5.87-2.25l-41.98-43.02H951.3v41.82c0,2.25-1.22,3.46-3.62,3.46h-8.65c-2.41,0-3.62-1.2-3.62-3.46
			V57.38c0-2.25,1.22-3.46,3.62-3.46h84.85C1042.01,53.93,1050.99,62.57,1050.99,79.85z M951.3,115.95h64.97
			c15.73,0,18.66-3.1,18.66-16.06V83.65c0-12.95-2.93-16.08-18.66-16.08H951.3V115.95z"/>
		<path class="st0" d="M1210.29,147.23c0,18.48-9.5,27.65-28.85,27.65h-61.86c-19.35,0-29.03-9.16-29.03-27.65V81.57
			c0-18.48,9.68-27.65,29.03-27.65h61.86c19.35,0,28.85,9.16,28.85,27.65V147.23z M1194.23,83.65c0-12.95-3.46-16.08-19.01-16.08
			h-49.76c-15.55,0-19.01,3.12-19.01,16.08v61.51c0,12.95,3.46,16.08,19.01,16.08h49.76c15.55,0,19.01-3.12,19.01-16.08V83.65z"/>
		<path class="st0" d="M1355.95,174.88c-2.76,0-3.63-0.51-5.18-2.59l-79.65-104.89v104.02c0,2.25-1.22,3.46-3.63,3.46h-8.12
			c-2.43,0-3.63-1.2-3.63-3.46V57.38c0-2.25,1.2-3.46,3.63-3.46h16.76c2.6,0,3.46,0.69,5.01,2.59l79.84,105.06V57.38
			c0-2.25,1.2-3.46,3.62-3.46h8.13c2.41,0,3.62,1.2,3.62,3.46v114.04c0,2.25-1.22,3.46-3.62,3.46H1355.95z"/>
		<path class="st0" d="M1439.57,171.42c0,2.25-1.22,3.46-3.62,3.46h-8.65c-2.41,0-3.62-1.2-3.62-3.46V57.38
			c0-2.25,1.22-3.46,3.62-3.46h8.65c2.41,0,3.62,1.2,3.62,3.46V171.42z"/>
		<path class="st0" d="M1493.48,141.88c2.24,0,3.62,1.2,3.62,3.46v3.46c0,8.46,3.81,12.44,12.8,12.44h54.6
			c15.37,0,18.14-2.94,18.14-15.56v-9.5c0-12.62-2.76-15.55-18.14-15.55h-54.43c-18.14,0-26.96-8.64-26.96-25.92V79.85
			c0-17.28,8.82-25.92,26.96-25.92h58.22c20.04,0,28,7.6,28,26.78v2.76c0,2.25-1.22,3.46-3.63,3.46h-8.29
			c-2.42,0-3.63-1.2-3.63-3.46v-3.46c0-8.46-3.79-12.44-12.95-12.44h-50.63c-15.21,0-18.14,2.94-18.14,15.56v8.29
			c0,12.61,2.93,15.54,18.14,15.54h54.43c18.14,0,27.12,8.65,27.12,25.93v16.06c0,17.28-8.99,25.92-27.12,25.92h-62.2
			c-19.88,0-27.99-7.6-27.99-26.78v-2.76c0-2.25,1.38-3.46,3.63-3.46H1493.48z"/>
	</g>
	<g>
		<path class="st0" d="M405.39,256.87h-45.27c-2.42,0-3.63-1.2-3.63-3.46v-6.73c0-2.25,1.22-3.46,3.63-3.46h106.62
			c2.41,0,3.62,1.2,3.62,3.46v6.73c0,2.25-1.22,3.46-3.62,3.46h-45.28v103.85c0,2.25-1.38,3.46-3.62,3.46h-8.82
			c-2.24,0-3.62-1.2-3.62-3.46V256.87z"/>
		<path class="st0" d="M613.25,243.23c2.24,0,3.62,1.2,3.62,3.46v6.73c0,2.25-1.38,3.46-3.62,3.46h-91.23v39.4h77.58
			c2.25,0,3.63,1.22,3.63,3.46v6.74c0,2.24-1.38,3.46-3.63,3.46h-77.58v40.61h91.23c2.24,0,3.62,1.2,3.62,3.46v6.73
			c0,2.25-1.38,3.46-3.62,3.46H509.75c-2.41,0-3.62-1.2-3.62-3.46V246.68c0-2.25,1.22-3.46,3.62-3.46H613.25z"/>
		<path class="st0" d="M767.37,328.06c2.42,0,3.63,1.22,3.63,3.46v5.89c0,19.17-7.96,26.78-28,26.78h-56.84
			c-19.35,0-29.03-9.16-29.03-27.65v-65.66c0-18.48,9.68-27.65,29.03-27.65H743c20.04,0,28,7.6,28,26.78v5.89
			c0,2.24-1.22,3.46-3.63,3.46h-8.29c-2.42,0-3.63-1.22-3.63-3.46v-6.58c0-8.46-3.79-12.44-12.95-12.44h-50.45
			c-15.55,0-19.01,3.12-19.01,16.08v61.51c0,12.95,3.46,16.08,19.01,16.08h50.45c9.16,0,12.95-3.98,12.95-12.44v-6.58
			c0-2.24,1.22-3.46,3.63-3.46H767.37z"/>
		<path class="st0" d="M930.64,360.72c0,2.25-1.2,3.46-3.62,3.46h-8.64c-2.42,0-3.63-1.2-3.63-3.46v-50.8h-85.18v50.8
			c0,2.25-1.22,3.46-3.62,3.46h-8.65c-2.41,0-3.62-1.2-3.62-3.46V246.68c0-2.25,1.22-3.46,3.62-3.46h8.65c2.41,0,3.62,1.2,3.62,3.46
			v49.59h85.18v-49.59c0-2.25,1.22-3.46,3.63-3.46h8.64c2.42,0,3.62,1.2,3.62,3.46V360.72z"/>
		<path class="st0" d="M1078.2,364.18c-2.76,0-3.62-0.51-5.18-2.59L993.36,256.7v104.02c0,2.25-1.2,3.46-3.62,3.46h-8.13
			c-2.41,0-3.62-1.2-3.62-3.46V246.68c0-2.25,1.22-3.46,3.62-3.46h16.77c2.59,0,3.46,0.69,5.02,2.59l79.82,105.06V246.68
			c0-2.25,1.22-3.46,3.63-3.46h8.12c2.43,0,3.63,1.2,3.63,3.46v114.04c0,2.25-1.2,3.46-3.63,3.46H1078.2z"/>
		<path class="st0" d="M1263.93,336.53c0,18.48-9.5,27.65-28.85,27.65h-61.86c-19.35,0-29.03-9.16-29.03-27.65v-65.66
			c0-18.48,9.68-27.65,29.03-27.65h61.86c19.35,0,28.85,9.16,28.85,27.65V336.53z M1247.87,272.95c0-12.95-3.46-16.08-19.01-16.08
			h-49.76c-15.55,0-19.01,3.12-19.01,16.08v61.51c0,12.95,3.46,16.08,19.01,16.08h49.76c15.55,0,19.01-3.12,19.01-16.08V272.95z"/>
		<path class="st0" d="M1421.35,364.18c-2.93,0-4.15-1.04-4.84-3.28l-30.58-100.57l-30.59,100.57c-0.69,2.24-1.9,3.28-4.84,3.28
			h-14.34c-2.94,0-4.33-1.04-5.02-3.28l-36.12-114.22c-0.69-2.25,0.36-3.46,2.43-3.46h9.32c2.76,0,4.15,1.04,4.84,3.28l32.15,104.37
			l31.79-104.37c0.69-2.24,1.9-3.28,4.84-3.28h11.75c2.93,0,4.31,1.04,5.01,3.28l31.63,104.72l32.31-104.72
			c0.69-2.24,2.07-3.28,5.02-3.28h8.46c2.24,0,3.11,1.2,2.42,3.46l-36.12,114.22c-0.69,2.24-2.07,3.28-5.01,3.28H1421.35z"/>
		<path class="st0" d="M1527.6,360.72c0,2.25-1.2,3.46-3.63,3.46h-8.63c-2.43,0-3.63-1.2-3.63-3.46V246.68
			c0-2.25,1.2-3.46,3.63-3.46h8.63c2.43,0,3.63,1.2,3.63,3.46V360.72z"/>
		<path class="st0" d="M1675.16,364.18c-2.76,0-3.62-0.51-5.18-2.59l-79.66-104.89v104.02c0,2.25-1.2,3.46-3.62,3.46h-8.13
			c-2.41,0-3.62-1.2-3.62-3.46V246.68c0-2.25,1.22-3.46,3.62-3.46h16.77c2.59,0,3.46,0.69,5.02,2.59l79.82,105.06V246.68
			c0-2.25,1.22-3.46,3.63-3.46h8.12c2.43,0,3.63,1.2,3.63,3.46v114.04c0,2.25-1.2,3.46-3.63,3.46H1675.16z"/>
		<path class="st0" d="M1846.38,278.47c-2.41,0-3.62-1.2-3.62-3.46v-5.71c0-8.46-3.98-12.44-12.96-12.44h-53.73
			c-15.55,0-19.01,3.12-19.01,16.08v61.51c0,12.95,3.46,16.08,19.01,16.08h53.73c8.99,0,12.96-3.98,12.96-12.44v-22.99h-38.18
			c-2.43,0-3.63-1.2-3.63-3.46v-6.73c0-2.25,1.2-3.46,3.63-3.46h50.1c2.25,0,3.63,1.2,3.63,3.46v32.48
			c0,19.17-7.95,26.78-27.99,26.78h-60.13c-19.35,0-29.03-9.16-29.03-27.65v-65.66c0-18.48,9.68-27.65,29.03-27.65h60.13
			c20.04,0,27.99,7.6,27.99,26.78v5.02c0,2.25-1.38,3.46-3.63,3.46H1846.38z"/>
	</g>
</g>
</svg>
